<?xml version="1.0" encoding="utf-8"?>
<!-- Generator: Adobe Illustrator 27.5.0, SVG Export Plug-In . SVG Version: 6.00 Build 0)  -->
<svg version="1.1" id="_图层_2" xmlns="http://www.w3.org/2000/svg" xmlns:xlink="http://www.w3.org/1999/xlink" x="0px" y="0px"
	 viewBox="0 0 893.7 162" style="enable-background:new 0 0 893.7 162;" xml:space="preserve">
<style type="text/css">
	.st0{fill:none;stroke:#000000;stroke-width:10;stroke-miterlimit:10;}
</style>
<g>
	<path d="M92.2,71v20.5H52.1v40.7H27.5V30.4h24.6V71H92.2z M108.2,30.4h24.4v101.7h-24.4C108.2,132.1,108.2,30.4,108.2,30.4z"/>
	<rect x="5" y="5" class="st0" width="152" height="152"/>
</g>
<g>
	<path d="M188.5,31.1h10.1v16.7h23V31.1h10v42h-10V56.3h-23v16.8h-10.1V31.1z"/>
	<path d="M258.4,30.5h10.2l20.2,42.6h-10.7l-2.9-6.1h-23.4l-2.9,6.1h-10.7L258.4,30.5L258.4,30.5z M255.8,58.5h15.3l-7.6-16
		L255.8,58.5L255.8,58.5z"/>
	<path d="M295.3,31.1h10.1l25.6,29.3V31.1h10v42h-10l-25.6-29.3v29.3h-10.1V31.1z"/>
	<path d="M368.9,30.5h10.2l20.2,42.6h-10.7L374,42.5l-14.6,30.6h-10.7L368.9,30.5L368.9,30.5z"/>
	<path d="M404.8,31.1h10.1l16.2,28.3l16.2-28.3h10.1v42h-10.1v-25l-14.3,25h-3.8l-14.3-25v25h-10.1V31.1z"/>
	<path d="M466.2,31.1h10.1v42h-10.1V31.1z"/>
	<path d="M521.5,64.6v8.5h-37.8v-8.5l24.8-25.1h-24.2v-8.5h35.2v8.5l-24.2,25.1H521.5z"/>
	<path d="M543.5,30.5h10.2l20.2,42.6h-10.7l-2.9-6.1h-23.4l-2.9,6.1h-10.7L543.5,30.5L543.5,30.5z M541,58.5h15.3l-7.6-16L541,58.5
		L541,58.5z"/>
	<path d="M580.5,31.1h10.1v17.3l18.5-17.3h12.8l-19.6,18.8l22.2,23.2h-13.1l-15.8-16.9l-5,4.9v12h-10.1L580.5,31.1L580.5,31.1z"/>
	<path d="M648.5,30.5h10.2l20.2,42.6h-10.7l-2.9-6.1h-23.4l-2.9,6.1h-10.7L648.5,30.5L648.5,30.5z M646,58.5h15.3l-7.6-16L646,58.5
		L646,58.5z"/>
	<path d="M722.1,29.7c8.3,0,15.5,3.4,20,9.2l-7.5,6.5c-2.7-3.4-7.5-6.1-12.1-6.1c-8.9,0-13.4,6.3-13.4,12.7s4.5,12.6,13.4,12.6
		c5.8,0,9.5-2.9,12.1-6.2l7.5,6.5c-4.6,5.7-11.8,9.4-20,9.4c-10.7,0-23.3-7.6-23.3-22.4S711.4,29.7,722.1,29.7z"/>
	<path d="M768.1,74.5c-11,0-23.8-7.4-23.8-22.4s12.8-22.4,23.8-22.4s23.8,7.4,23.8,22.4S779,74.5,768.1,74.5z M768.1,39.3
		c-6.3,0-13.5,4.2-13.5,12.8s7.3,12.7,13.5,12.7s13.5-4.1,13.5-12.7S774.3,39.3,768.1,39.3z"/>
	<path d="M799.7,31.1h25.2c9.2,0,13.7,6.5,13.7,13.1c0,5.1-2.8,10.3-8.4,12.2l12.9,16.6h-12.7l-11-15.8h-9.6v15.8h-10.1V31.1z
		 M809.8,48.9h12.7c3.8,0,5.7-2.3,5.7-4.7s-1.9-4.7-5.7-4.7h-12.7V48.9z"/>
	<path d="M849.3,31.1h22.6c9.1,0,13.7,6.8,13.7,13.7s-4.6,13.7-13.7,13.7h-12.5v14.6h-10.1L849.3,31.1L849.3,31.1z M859.4,50h11.5
		c3.3,0,5-2.6,5-5.2s-1.7-5.2-5-5.2h-11.5C859.4,39.5,859.4,50,859.4,50z"/>
	<path d="M888.7,63.6c2.9,0,5,2.2,5,5s-2.2,5.1-5,5.1s-5-2.2-5-5.1S885.9,63.6,888.7,63.6z"/>
</g>
<g>
	<path d="M195.7,95.9l6.6,24l14.2-24.1l1,30.3h-3.2l-0.6-19.4h-0.1l-12.4,20.6l-5.9-20.6h-0.1l-6.7,19.4h-3.2L195.7,95.9L195.7,95.9
		z"/>
	<path d="M237.4,126.2h-3l0.4-2.5h-0.1c-1.9,2-4.1,3-6.6,3c-1.3,0-2.4-0.3-3.4-0.8s-1.8-1.2-2.4-2.1s-1-1.9-1.2-3
		c-0.2-1.1-0.2-2.3,0-3.6c0.2-1.3,0.6-2.5,1.1-3.6c0.6-1.2,1.3-2.2,2.1-3c0.9-0.9,1.9-1.5,3-2.1s2.4-0.8,3.7-0.8
		c1.2,0,2.3,0.3,3.3,0.8c1,0.5,1.8,1.3,2.3,2.2h0.1l0.4-2.6h3L237.4,126.2L237.4,126.2z M231,110.7c-0.9,0-1.7,0.2-2.5,0.5
		c-0.8,0.3-1.4,0.8-2,1.4c-0.6,0.6-1.1,1.3-1.5,2.1c-0.4,0.8-0.7,1.6-0.8,2.4c-0.1,0.9-0.2,1.7,0,2.6c0.1,0.8,0.4,1.5,0.8,2.2
		c0.4,0.6,0.9,1.1,1.6,1.5c0.6,0.4,1.5,0.6,2.4,0.6s1.9-0.2,2.7-0.6c0.8-0.4,1.5-0.9,2.1-1.5s1.1-1.3,1.4-2.2
		c0.4-0.8,0.6-1.7,0.8-2.6c0.1-0.9,0.1-1.7,0-2.5s-0.4-1.5-0.9-2.1c-0.4-0.6-1-1-1.7-1.4C232.7,110.9,231.9,110.7,231,110.7
		L231,110.7z"/>
	<path d="M247.6,115l7.5-6.6h4l-8.8,7.6l7.4,10.3h-4l-5.9-8.1l-0.9,0.8l-1.2,7.3h-3l4.9-31.3h3L247.6,115L247.6,115z"/>
	<path d="M264.3,126.2h-3l2.8-17.9h3L264.3,126.2z M267,99.5c0.6,0,1,0.2,1.4,0.7c0.4,0.4,0.5,0.9,0.4,1.5c-0.1,0.6-0.4,1.1-0.9,1.5
		c-0.5,0.4-1,0.6-1.6,0.6s-1-0.2-1.4-0.6s-0.5-0.9-0.4-1.5c0.1-0.6,0.4-1.1,0.9-1.5C265.9,99.7,266.4,99.5,267,99.5L267,99.5z"/>
	<path d="M276.1,110.5L276.1,110.5c0.9-0.9,1.7-1.5,2.6-2c0.9-0.5,1.9-0.7,3-0.7c1.2,0,2.2,0.2,2.9,0.6s1.2,1,1.6,1.7
		s0.5,1.5,0.5,2.5c0,0.9,0,1.9-0.2,3l-1.7,10.6h-3l1.6-10.1c0.1-0.7,0.2-1.4,0.2-2.1c0-0.7,0-1.2-0.2-1.8c-0.2-0.5-0.5-0.9-0.9-1.2
		c-0.5-0.3-1.1-0.5-2-0.5c-1,0-1.9,0.2-2.5,0.7c-0.7,0.4-1.2,1-1.6,1.7c-0.4,0.7-0.7,1.4-0.9,2.3c-0.2,0.8-0.4,1.7-0.5,2.4l-1.3,8.5
		h-3l2.8-17.9h3L276.1,110.5L276.1,110.5z"/>
	<path d="M306.7,125.3c-0.1,0.7-0.2,1.4-0.4,2.1c-0.1,0.7-0.3,1.3-0.5,2c-0.2,0.6-0.5,1.2-0.8,1.9s-0.8,1.2-1.3,1.8
		c-1,1.1-2.1,1.9-3.4,2.4c-1.3,0.5-2.6,0.8-3.9,0.8c-1.2,0-2.4-0.2-3.3-0.6s-1.8-0.9-2.5-1.6c-0.7-0.7-1.1-1.6-1.4-2.6
		s-0.4-2.1-0.2-3.4h3c-0.1,0.8-0.1,1.6,0.1,2.2s0.5,1.2,0.9,1.7s1,0.8,1.6,1.1s1.4,0.4,2.2,0.4c1.2,0,2.1-0.2,3-0.6s1.5-0.9,2-1.6
		c0.5-0.7,0.9-1.5,1.2-2.4c0.3-0.9,0.5-1.9,0.7-2.9l0.3-2.1h-0.1c-0.9,0.9-1.9,1.7-3,2.2s-2.4,0.8-3.6,0.8c-1.3,0-2.4-0.2-3.4-0.8
		s-1.8-1.2-2.4-2.1c-0.6-0.9-1-1.9-1.2-3c-0.2-1.1-0.2-2.3,0-3.6c0.2-1.2,0.6-2.4,1.2-3.6c0.6-1.2,1.3-2.2,2.2-3s1.9-1.6,3-2.1
		c1.1-0.5,2.4-0.8,3.7-0.8c1.2,0,2.3,0.3,3.3,0.8c1,0.5,1.7,1.3,2.3,2.2h0.1l0.4-2.6h3L306.7,125.3L306.7,125.3z M300.2,110.7
		c-0.9,0-1.7,0.2-2.5,0.5c-0.8,0.3-1.5,0.8-2,1.4c-0.6,0.6-1.1,1.3-1.5,2.1c-0.4,0.8-0.7,1.6-0.8,2.4c-0.1,0.9-0.2,1.7,0,2.6
		c0.1,0.8,0.4,1.5,0.8,2.2c0.4,0.6,0.9,1.1,1.6,1.5c0.6,0.4,1.5,0.6,2.4,0.6s1.9-0.2,2.7-0.6c0.8-0.4,1.5-0.9,2.1-1.5
		s1.1-1.3,1.5-2.2c0.4-0.8,0.6-1.7,0.8-2.6c0.1-0.9,0.1-1.7,0-2.5s-0.4-1.5-0.9-2.1s-1-1-1.7-1.4
		C301.9,110.8,301.1,110.7,300.2,110.7L300.2,110.7z"/>
	<path d="M340.3,126.2h-3l0.4-2.5h-0.1c-1.9,2-4.1,3-6.6,3c-1.3,0-2.5-0.3-3.4-0.8s-1.8-1.2-2.4-2.1c-0.6-0.9-1-1.9-1.2-3
		c-0.2-1.1-0.2-2.3,0-3.6c0.2-1.3,0.6-2.5,1.1-3.6c0.6-1.2,1.3-2.2,2.1-3c0.9-0.9,1.9-1.5,3-2.1s2.4-0.8,3.7-0.8
		c1.2,0,2.3,0.3,3.3,0.8c1,0.5,1.8,1.3,2.3,2.2h0.1l0.4-2.6h3L340.3,126.2L340.3,126.2z M333.9,110.7c-0.9,0-1.7,0.2-2.5,0.5
		c-0.8,0.3-1.5,0.8-2,1.4c-0.6,0.6-1.1,1.3-1.5,2.1c-0.4,0.8-0.7,1.6-0.8,2.4c-0.1,0.9-0.2,1.7,0,2.6c0.1,0.8,0.4,1.5,0.8,2.2
		c0.4,0.6,0.9,1.1,1.6,1.5c0.6,0.4,1.5,0.6,2.4,0.6s1.9-0.2,2.7-0.6c0.8-0.4,1.5-0.9,2.1-1.5s1.1-1.3,1.5-2.2
		c0.4-0.8,0.6-1.7,0.8-2.6c0.1-0.9,0.1-1.7,0-2.5s-0.4-1.5-0.9-2.1s-1-1-1.7-1.4C335.7,110.9,334.8,110.7,333.9,110.7L333.9,110.7z"
		/>
	<path d="M362.4,94.9h3l-2.5,16h0.1c0.9-1,1.9-1.7,3-2.2c1.1-0.5,2.3-0.8,3.5-0.8c1.3,0,2.5,0.2,3.4,0.8s1.8,1.2,2.4,2.1
		s1,1.9,1.2,3c0.2,1.1,0.2,2.3,0,3.6c-0.2,1.2-0.6,2.4-1.2,3.6c-0.6,1.1-1.3,2.1-2.2,3c-0.9,0.9-1.9,1.6-3,2.1
		c-1.1,0.5-2.3,0.8-3.6,0.8c-1.2,0-2.3-0.2-3.3-0.8s-1.8-1.2-2.3-2.2h-0.1l-0.4,2.5h-3L362.4,94.9L362.4,94.9z M368.5,110.7
		c-0.9,0-1.7,0.2-2.5,0.5c-0.8,0.3-1.5,0.8-2,1.4c-0.6,0.6-1.1,1.3-1.5,2.1c-0.4,0.8-0.7,1.6-0.8,2.4c-0.1,0.9-0.2,1.7,0,2.6
		c0.1,0.8,0.4,1.5,0.8,2.2c0.4,0.6,0.9,1.1,1.6,1.5c0.6,0.4,1.5,0.6,2.4,0.6s1.9-0.2,2.7-0.6c0.8-0.4,1.5-0.9,2.1-1.5
		s1.1-1.3,1.5-2.2c0.4-0.8,0.6-1.7,0.8-2.6c0.1-0.9,0.1-1.7,0-2.5s-0.4-1.5-0.9-2.1s-1-1-1.7-1.4
		C370.3,110.9,369.4,110.7,368.5,110.7L368.5,110.7z"/>
	<path d="M382.2,117.9c-0.1,0.8-0.1,1.6,0.1,2.3s0.5,1.4,0.9,1.9s1,1,1.6,1.3c0.7,0.3,1.4,0.5,2.3,0.5c1.3,0,2.4-0.4,3.4-1
		c1-0.7,1.8-1.6,2.6-2.6l2.3,1.5c-1.1,1.6-2.4,2.8-4,3.7s-3.2,1.3-5,1.3c-1.3,0-2.5-0.2-3.5-0.7s-1.8-1.1-2.4-2
		c-0.6-0.8-1-1.8-1.3-2.9c-0.2-1.1-0.3-2.3-0.1-3.6c0.2-1.3,0.6-2.6,1.1-3.7c0.6-1.2,1.3-2.2,2.1-3.1s1.9-1.6,3-2.1
		c1.1-0.5,2.4-0.8,3.8-0.8s2.6,0.3,3.6,0.8s1.8,1.3,2.4,2.2c0.6,0.9,0.9,2,1.1,3.2c0.1,1.2,0.1,2.5-0.2,3.8L382.2,117.9L382.2,117.9
		z M393.3,115.3c0-0.6-0.1-1.2-0.3-1.8c-0.2-0.6-0.5-1.1-0.9-1.5s-0.9-0.8-1.4-1c-0.5-0.2-1.2-0.4-1.8-0.4s-1.3,0.1-2,0.4
		c-0.6,0.2-1.2,0.6-1.8,1s-1.1,0.9-1.5,1.5c-0.4,0.6-0.7,1.2-0.9,1.8H393.3L393.3,115.3z"/>
	<path d="M402.1,126.2h-3l2.4-15.1h-1.9l0.4-2.8h1.9l1-6.4h3l-1,6.4h3.2l-0.4,2.8h-3.2L402.1,126.2z"/>
	<path d="M411.2,126.2h-3l2.4-15.1h-1.9l0.4-2.8h1.9l1-6.4h3l-1,6.4h3.2l-0.4,2.8h-3.2L411.2,126.2z"/>
	<path d="M419.9,117.9c-0.1,0.8-0.1,1.6,0.1,2.3s0.5,1.4,0.9,1.9s1,1,1.6,1.3c0.7,0.3,1.4,0.5,2.3,0.5c1.3,0,2.4-0.4,3.4-1
		c1-0.7,1.8-1.6,2.6-2.6l2.3,1.5c-1.1,1.6-2.4,2.8-4,3.7s-3.2,1.3-5,1.3c-1.3,0-2.5-0.2-3.5-0.7s-1.8-1.1-2.4-2
		c-0.6-0.8-1-1.8-1.3-2.9c-0.2-1.1-0.3-2.3-0.1-3.6c0.2-1.3,0.6-2.6,1.1-3.7c0.6-1.2,1.3-2.2,2.1-3.1s1.9-1.6,3-2.1
		c1.1-0.5,2.4-0.8,3.8-0.8s2.6,0.3,3.6,0.8s1.8,1.3,2.4,2.2c0.6,0.9,0.9,2,1.1,3.2c0.1,1.2,0.1,2.5-0.2,3.8L419.9,117.9L419.9,117.9
		z M431.1,115.3c0-0.6-0.1-1.2-0.3-1.8c-0.2-0.6-0.5-1.1-0.9-1.5s-0.9-0.8-1.4-1c-0.5-0.2-1.2-0.4-1.8-0.4s-1.3,0.1-2,0.4
		c-0.6,0.2-1.2,0.6-1.8,1s-1.1,0.9-1.5,1.5c-0.4,0.6-0.7,1.2-0.9,1.8H431.1L431.1,115.3z"/>
	<path d="M442.1,110.3L442.1,110.3c0.7-0.7,1.4-1.3,2-1.8s1.4-0.7,2.4-0.7c0.5,0,1,0.1,1.4,0.2s0.8,0.3,1.2,0.6l-1.9,2.8
		c-0.3-0.2-0.5-0.4-0.7-0.6c-0.2-0.2-0.5-0.2-0.9-0.2c-0.8,0-1.5,0.2-2.1,0.7c-0.5,0.5-1,1-1.3,1.7c-0.3,0.7-0.6,1.4-0.8,2.2
		c-0.2,0.8-0.3,1.4-0.4,2l-1.4,8.9h-3l2.8-17.9h3L442.1,110.3z"/>
	<path d="M464.3,126.2h-3l2.4-15.1H462l0.4-2.8h1.7l1.1-7.1c0.1-0.7,0.3-1.5,0.5-2.4s0.5-1.6,1-2.3c0.6-0.8,1.4-1.4,2.3-1.7
		c0.9-0.3,1.8-0.5,2.7-0.5c0.4,0,0.7,0,1,0.1c0.3,0.1,0.7,0.2,1,0.3l-0.5,3.1c-0.3-0.1-0.6-0.2-0.9-0.3c-0.3-0.1-0.6-0.1-1-0.1
		c-0.6,0-1.1,0.1-1.5,0.3c-0.4,0.2-0.7,0.5-0.9,0.9s-0.4,0.9-0.5,1.5c-0.1,0.6-0.2,1.3-0.4,2.1l-1,6h4.5l-0.4,2.8h-4.5L464.3,126.2
		L464.3,126.2z"/>
	<path d="M475.4,118.3c-0.1,0.8-0.2,1.5-0.2,2.1c0,0.7,0.1,1.3,0.2,1.8c0.2,0.5,0.5,0.9,1,1.2c0.5,0.3,1.2,0.5,2.1,0.5
		s1.6-0.1,2.2-0.5c0.6-0.3,1-0.7,1.4-1.2c0.4-0.5,0.6-1.1,0.8-1.8c0.2-0.7,0.3-1.4,0.5-2.2l1.5-10h3l-1.6,10.3
		c-0.2,1.2-0.5,2.3-0.9,3.3s-0.9,1.8-1.6,2.6c-0.7,0.7-1.5,1.3-2.4,1.6s-2.1,0.6-3.4,0.6s-2.4-0.2-3.2-0.6s-1.5-0.9-1.9-1.6
		c-0.4-0.7-0.7-1.6-0.8-2.6c-0.1-1,0-2.1,0.2-3.3l1.6-10.3h3L475.4,118.3L475.4,118.3z"/>
	<path d="M493.9,126.2h-3l2.4-15.1h-1.9l0.4-2.8h1.9l1-6.4h3l-1,6.4h3.2l-0.4,2.8h-3.2L493.9,126.2z"/>
	<path d="M503.8,118.3c-0.1,0.8-0.2,1.5-0.2,2.1c0,0.7,0.1,1.3,0.2,1.8c0.2,0.5,0.5,0.9,1,1.2c0.5,0.3,1.2,0.5,2.1,0.5
		s1.6-0.1,2.2-0.5c0.6-0.3,1-0.7,1.4-1.2c0.4-0.5,0.6-1.1,0.8-1.8c0.2-0.7,0.3-1.4,0.5-2.2l1.5-10h3l-1.6,10.3
		c-0.2,1.2-0.5,2.3-0.9,3.3s-0.9,1.8-1.6,2.6c-0.7,0.7-1.5,1.3-2.4,1.6s-2.1,0.6-3.4,0.6s-2.4-0.2-3.2-0.6s-1.5-0.9-1.9-1.6
		c-0.4-0.7-0.7-1.6-0.8-2.6c-0.1-1,0-2.1,0.2-3.3l1.6-10.3h3L503.8,118.3L503.8,118.3z"/>
	<path d="M524.5,110.3L524.5,110.3c0.7-0.7,1.4-1.3,2-1.8s1.4-0.7,2.4-0.7c0.5,0,1,0.1,1.4,0.2s0.8,0.3,1.2,0.6l-1.9,2.8
		c-0.3-0.2-0.5-0.4-0.7-0.6c-0.2-0.2-0.5-0.2-0.9-0.2c-0.8,0-1.5,0.2-2.1,0.7c-0.5,0.5-1,1-1.3,1.7c-0.3,0.7-0.6,1.4-0.8,2.2
		c-0.2,0.8-0.3,1.4-0.4,2l-1.4,8.9h-3l2.8-17.9h3L524.5,110.3L524.5,110.3z"/>
	<path d="M534.6,117.9c-0.1,0.8-0.1,1.6,0.1,2.3s0.5,1.4,0.9,1.9c0.4,0.5,1,1,1.6,1.3c0.7,0.3,1.4,0.5,2.3,0.5c1.3,0,2.4-0.4,3.4-1
		s1.8-1.6,2.6-2.6l2.3,1.5c-1.1,1.6-2.4,2.8-4,3.7c-1.5,0.9-3.2,1.3-5,1.3c-1.3,0-2.5-0.2-3.5-0.7s-1.8-1.1-2.4-2
		c-0.6-0.8-1-1.8-1.3-2.9c-0.2-1.1-0.3-2.3-0.1-3.6c0.2-1.3,0.6-2.6,1.2-3.7s1.3-2.2,2.2-3.1c0.9-0.9,1.9-1.6,3-2.1
		c1.2-0.5,2.4-0.8,3.8-0.8s2.7,0.3,3.7,0.8s1.8,1.3,2.4,2.2c0.6,0.9,0.9,2,1.1,3.2s0.1,2.5-0.2,3.8L534.6,117.9L534.6,117.9z
		 M545.8,115.3c0-0.6-0.1-1.2-0.3-1.8s-0.5-1.1-0.9-1.5s-0.9-0.8-1.4-1c-0.5-0.2-1.2-0.4-1.8-0.4s-1.3,0.1-2,0.4
		c-0.6,0.2-1.2,0.6-1.8,1c-0.6,0.4-1.1,0.9-1.5,1.5c-0.4,0.6-0.7,1.2-0.9,1.8H545.8L545.8,115.3z"/>
	<path d="M555,122.5c0.6,0,1,0.2,1.4,0.6c0.3,0.4,0.5,0.9,0.4,1.5s-0.4,1.1-0.9,1.5c-0.5,0.4-1,0.6-1.6,0.6s-1-0.2-1.4-0.6
		c-0.3-0.4-0.5-0.9-0.4-1.5s0.4-1.1,0.9-1.5S554.4,122.5,555,122.5z"/>
	<path d="M570.3,100.5l-1.3,8.5h9.5l-0.5,3h-9.5l-2.2,14.2h-3.2l4.5-28.7h13l-0.5,3L570.3,100.5L570.3,100.5z"/>
	<path d="M588.8,126.7c-1.3,0-2.5-0.2-3.5-0.7c-1.1-0.5-2-1.1-2.7-2c-0.7-0.9-1.2-1.8-1.5-3c-0.3-1.1-0.3-2.4-0.2-3.7
		c0.2-1.3,0.6-2.6,1.3-3.7c0.7-1.1,1.5-2.1,2.5-3c1-0.9,2.1-1.5,3.3-2s2.5-0.7,3.8-0.7s2.5,0.2,3.5,0.7s1.9,1.2,2.6,2
		c0.7,0.9,1.2,1.9,1.5,3s0.3,2.4,0.2,3.7c-0.2,1.3-0.6,2.6-1.3,3.7c-0.7,1.1-1.5,2.1-2.5,3c-1,0.9-2.1,1.5-3.3,2
		S590.1,126.7,588.8,126.7L588.8,126.7z M591.3,110.7c-0.9,0-1.8,0.2-2.7,0.5c-0.8,0.3-1.6,0.8-2.2,1.4c-0.7,0.6-1.2,1.3-1.6,2.1
		c-0.4,0.8-0.7,1.7-0.9,2.6c-0.2,0.9-0.1,1.8,0.1,2.6c0.2,0.8,0.5,1.5,1,2.1c0.5,0.6,1.1,1.1,1.8,1.4c0.7,0.3,1.5,0.5,2.5,0.5
		s1.8-0.2,2.7-0.5c0.8-0.3,1.6-0.8,2.2-1.4c0.6-0.6,1.2-1.3,1.6-2.1s0.7-1.7,0.9-2.6c0.2-0.9,0.1-1.8-0.1-2.6
		c-0.2-0.8-0.5-1.5-1-2.1s-1-1.1-1.8-1.4C593.1,110.8,592.2,110.7,591.3,110.7L591.3,110.7z"/>
	<path d="M607.7,110.3L607.7,110.3c0.7-0.7,1.4-1.3,2-1.8s1.4-0.7,2.4-0.7c0.5,0,1,0.1,1.4,0.2s0.8,0.3,1.2,0.6l-1.9,2.8
		c-0.3-0.2-0.5-0.4-0.7-0.6c-0.2-0.2-0.5-0.2-0.9-0.2c-0.8,0-1.5,0.2-2.1,0.7c-0.5,0.5-1,1-1.3,1.7c-0.3,0.7-0.6,1.4-0.8,2.2
		c-0.2,0.8-0.3,1.4-0.4,2l-1.4,8.9h-3l2.8-17.9h3L607.7,110.3L607.7,110.3z"/>
	<path d="M629.5,117.9c-0.1,0.8-0.1,1.6,0.1,2.3s0.5,1.4,0.9,1.9c0.4,0.5,1,1,1.6,1.3c0.7,0.3,1.4,0.5,2.3,0.5c1.3,0,2.4-0.4,3.4-1
		s1.8-1.6,2.6-2.6l2.3,1.5c-1.1,1.6-2.4,2.8-4,3.7c-1.5,0.9-3.2,1.3-5,1.3c-1.3,0-2.5-0.2-3.5-0.7s-1.8-1.1-2.4-2
		c-0.6-0.8-1-1.8-1.3-2.9c-0.2-1.1-0.3-2.3-0.1-3.6c0.2-1.3,0.6-2.6,1.2-3.7s1.3-2.2,2.2-3.1c0.9-0.9,1.9-1.6,3-2.1
		c1.2-0.5,2.4-0.8,3.8-0.8s2.7,0.3,3.7,0.8s1.8,1.3,2.4,2.2c0.6,0.9,0.9,2,1.1,3.2s0.1,2.5-0.2,3.8L629.5,117.9L629.5,117.9z
		 M640.6,115.3c0-0.6-0.1-1.2-0.3-1.8s-0.5-1.1-0.9-1.5s-0.9-0.8-1.4-1c-0.5-0.2-1.2-0.4-1.8-0.4s-1.3,0.1-2,0.4
		c-0.6,0.2-1.2,0.6-1.8,1c-0.6,0.4-1.1,0.9-1.5,1.5c-0.4,0.6-0.7,1.2-0.9,1.8H640.6L640.6,115.3z"/>
	<path d="M653,120.4l7.2-12h3.4l-11.7,19l-5.7-19h3.4L653,120.4L653,120.4z"/>
	<path d="M666.6,117.9c-0.1,0.8-0.1,1.6,0.1,2.3s0.5,1.4,0.9,1.9c0.4,0.5,1,1,1.6,1.3c0.7,0.3,1.4,0.5,2.3,0.5c1.3,0,2.4-0.4,3.4-1
		s1.8-1.6,2.6-2.6l2.3,1.5c-1.1,1.6-2.4,2.8-4,3.7c-1.5,0.9-3.2,1.3-5,1.3c-1.3,0-2.5-0.2-3.5-0.7s-1.8-1.1-2.4-2
		c-0.6-0.8-1-1.8-1.3-2.9c-0.2-1.1-0.3-2.3-0.1-3.6c0.2-1.3,0.6-2.6,1.2-3.7s1.3-2.2,2.2-3.1c0.9-0.9,1.9-1.6,3-2.1
		c1.2-0.5,2.4-0.8,3.8-0.8s2.7,0.3,3.7,0.8s1.8,1.3,2.4,2.2c0.6,0.9,0.9,2,1.1,3.2s0.1,2.5-0.2,3.8L666.6,117.9L666.6,117.9z
		 M677.7,115.3c0-0.6-0.1-1.2-0.3-1.8s-0.5-1.1-0.9-1.5s-0.9-0.8-1.4-1c-0.5-0.2-1.2-0.4-1.8-0.4s-1.3,0.1-2,0.4
		c-0.6,0.2-1.2,0.6-1.8,1c-0.6,0.4-1.1,0.9-1.5,1.5c-0.4,0.6-0.7,1.2-0.9,1.8H677.7L677.7,115.3z"/>
	<path d="M688.7,110.3L688.7,110.3c0.7-0.7,1.4-1.3,2-1.8s1.4-0.7,2.4-0.7c0.5,0,1,0.1,1.4,0.2s0.8,0.3,1.2,0.6l-1.9,2.8
		c-0.3-0.2-0.5-0.4-0.7-0.6c-0.2-0.2-0.5-0.2-0.9-0.2c-0.8,0-1.5,0.2-2.1,0.7c-0.5,0.5-1,1-1.3,1.7c-0.3,0.7-0.6,1.4-0.8,2.2
		c-0.2,0.8-0.3,1.4-0.4,2l-1.4,8.9h-3l2.8-17.9h3L688.7,110.3L688.7,110.3z"/>
	<path d="M697.4,108.4h3.5l4.3,12.8l7.8-12.8h3.4l-17.5,27.9h-3.4l7.6-11.7L697.4,108.4z"/>
	<path d="M733.3,110.9L733.3,110.9c1-1,2-1.7,3.1-2.3c1.1-0.5,2.3-0.8,3.5-0.8c1.3,0,2.5,0.3,3.4,0.8s1.8,1.2,2.4,2.1s1,1.9,1.2,3
		c0.2,1.1,0.2,2.3,0,3.6c-0.2,1.3-0.6,2.5-1.2,3.6c-0.6,1.1-1.3,2.1-2.2,3s-1.9,1.5-3,2s-2.4,0.7-3.7,0.7c-1.2,0-2.3-0.3-3.3-0.8
		s-1.8-1.3-2.3-2.2h-0.1l-2,12.5h-3l4.4-27.9h3L733.3,110.9L733.3,110.9z M739,110.7c-0.9,0-1.7,0.2-2.5,0.5c-0.8,0.3-1.5,0.8-2,1.4
		c-0.6,0.6-1.1,1.3-1.5,2.1c-0.4,0.8-0.7,1.6-0.8,2.4c-0.2,0.9-0.2,1.7,0,2.6c0.1,0.8,0.4,1.5,0.8,2.2c0.4,0.6,0.9,1.1,1.6,1.5
		c0.7,0.4,1.5,0.6,2.4,0.6s1.9-0.2,2.7-0.6c0.8-0.4,1.5-0.9,2.1-1.5s1.1-1.3,1.5-2.2c0.4-0.8,0.6-1.7,0.8-2.6c0.2-0.9,0.2-1.7,0-2.5
		s-0.4-1.5-0.8-2.1s-1-1-1.7-1.4C740.7,110.8,739.9,110.7,739,110.7L739,110.7z"/>
	<path d="M752.6,117.9c-0.1,0.8-0.1,1.6,0.1,2.3s0.5,1.4,0.9,1.9c0.4,0.5,1,1,1.6,1.3c0.7,0.3,1.4,0.5,2.3,0.5c1.3,0,2.4-0.4,3.4-1
		s1.8-1.6,2.6-2.6l2.3,1.5c-1.1,1.6-2.4,2.8-4,3.7c-1.5,0.9-3.2,1.3-5,1.3c-1.3,0-2.5-0.2-3.5-0.7s-1.8-1.1-2.4-2
		c-0.6-0.8-1-1.8-1.3-2.9c-0.2-1.1-0.3-2.3-0.1-3.6c0.2-1.3,0.6-2.6,1.2-3.7s1.3-2.2,2.2-3.1c0.9-0.9,1.9-1.6,3-2.1
		c1.2-0.5,2.4-0.8,3.8-0.8s2.7,0.3,3.7,0.8s1.8,1.3,2.4,2.2c0.6,0.9,0.9,2,1.1,3.2s0.1,2.5-0.2,3.8L752.6,117.9L752.6,117.9z
		 M763.8,115.3c0-0.6-0.1-1.2-0.3-1.8s-0.5-1.1-0.9-1.5s-0.9-0.8-1.4-1c-0.5-0.2-1.2-0.4-1.8-0.4s-1.3,0.1-2,0.4
		c-0.6,0.2-1.2,0.6-1.8,1c-0.6,0.4-1.1,0.9-1.5,1.5c-0.4,0.6-0.7,1.2-0.9,1.8H763.8L763.8,115.3z"/>
	<path d="M777.1,126.7c-1.3,0-2.5-0.2-3.5-0.7c-1.1-0.5-2-1.1-2.7-2c-0.7-0.9-1.2-1.8-1.5-3c-0.3-1.1-0.3-2.4-0.2-3.7
		c0.2-1.3,0.6-2.6,1.3-3.7c0.7-1.1,1.5-2.1,2.5-3c1-0.9,2.1-1.5,3.3-2s2.5-0.7,3.8-0.7s2.5,0.2,3.5,0.7s1.9,1.2,2.6,2
		c0.7,0.9,1.2,1.9,1.5,3s0.3,2.4,0.2,3.7c-0.2,1.3-0.6,2.6-1.3,3.7c-0.7,1.1-1.5,2.1-2.5,3c-1,0.9-2.1,1.5-3.3,2
		S778.4,126.7,777.1,126.7L777.1,126.7z M779.6,110.7c-0.9,0-1.8,0.2-2.7,0.5c-0.8,0.3-1.6,0.8-2.2,1.4c-0.7,0.6-1.2,1.3-1.6,2.1
		c-0.4,0.8-0.7,1.7-0.9,2.6c-0.2,0.9-0.1,1.8,0.1,2.6c0.2,0.8,0.5,1.5,1,2.1c0.5,0.6,1.1,1.1,1.8,1.4c0.7,0.3,1.5,0.5,2.5,0.5
		s1.8-0.2,2.7-0.5c0.8-0.3,1.6-0.8,2.2-1.4c0.6-0.6,1.2-1.3,1.6-2.1s0.7-1.7,0.9-2.6c0.2-0.9,0.1-1.8-0.1-2.6
		c-0.2-0.8-0.5-1.5-1-2.1s-1-1.1-1.8-1.4C781.4,110.8,780.5,110.7,779.6,110.7L779.6,110.7z"/>
	<path d="M795.9,110.9L795.9,110.9c1-1,2-1.7,3.1-2.3c1.1-0.5,2.3-0.8,3.5-0.8c1.3,0,2.5,0.3,3.4,0.8s1.8,1.2,2.4,2.1s1,1.9,1.2,3
		c0.2,1.1,0.2,2.3,0,3.6c-0.2,1.3-0.6,2.5-1.2,3.6c-0.6,1.1-1.3,2.1-2.2,3s-1.9,1.5-3,2s-2.4,0.7-3.7,0.7c-1.2,0-2.3-0.3-3.3-0.8
		s-1.8-1.3-2.3-2.2h-0.1l-2,12.5h-3l4.4-27.9h3L795.9,110.9L795.9,110.9z M801.6,110.7c-0.9,0-1.7,0.2-2.5,0.5
		c-0.8,0.3-1.5,0.8-2,1.4c-0.6,0.6-1.1,1.3-1.5,2.1c-0.4,0.8-0.7,1.6-0.8,2.4c-0.2,0.9-0.2,1.7,0,2.6c0.1,0.8,0.4,1.5,0.8,2.2
		c0.4,0.6,0.9,1.1,1.6,1.5c0.7,0.4,1.5,0.6,2.4,0.6s1.9-0.2,2.7-0.6c0.8-0.4,1.5-0.9,2.1-1.5s1.1-1.3,1.5-2.2
		c0.4-0.8,0.6-1.7,0.8-2.6c0.2-0.9,0.2-1.7,0-2.5s-0.4-1.5-0.8-2.1s-1-1-1.7-1.4C803.4,110.8,802.6,110.7,801.6,110.7L801.6,110.7z"
		/>
	<path d="M815.4,126.2h-3l5-31.3h3L815.4,126.2z"/>
	<path d="M823.8,117.9c-0.1,0.8-0.1,1.6,0.1,2.3s0.5,1.4,0.9,1.9c0.4,0.5,1,1,1.6,1.3c0.7,0.3,1.4,0.5,2.3,0.5c1.3,0,2.4-0.4,3.4-1
		s1.8-1.6,2.6-2.6l2.3,1.5c-1.1,1.6-2.4,2.8-4,3.7c-1.5,0.9-3.2,1.3-5,1.3c-1.3,0-2.5-0.2-3.5-0.7s-1.8-1.1-2.4-2
		c-0.6-0.8-1-1.8-1.3-2.9c-0.2-1.1-0.3-2.3-0.1-3.6c0.2-1.3,0.6-2.6,1.2-3.7s1.3-2.2,2.2-3.1c0.9-0.9,1.9-1.6,3-2.1
		c1.2-0.5,2.4-0.8,3.8-0.8s2.7,0.3,3.7,0.8s1.8,1.3,2.4,2.2c0.6,0.9,0.9,2,1.1,3.2s0.1,2.5-0.2,3.8L823.8,117.9L823.8,117.9z
		 M835,115.3c0-0.6-0.1-1.2-0.3-1.8s-0.5-1.1-0.9-1.5s-0.9-0.8-1.4-1c-0.5-0.2-1.2-0.4-1.8-0.4s-1.3,0.1-2,0.4
		c-0.6,0.2-1.2,0.6-1.8,1c-0.6,0.4-1.1,0.9-1.5,1.5c-0.4,0.6-0.7,1.2-0.9,1.8H835L835,115.3z"/>
	<path d="M844.2,122.5c0.6,0,1,0.2,1.4,0.6c0.3,0.4,0.5,0.9,0.4,1.5s-0.4,1.1-0.9,1.5c-0.5,0.4-1,0.6-1.6,0.6s-1-0.2-1.4-0.6
		c-0.3-0.4-0.5-0.9-0.4-1.5s0.4-1.1,0.9-1.5S843.6,122.5,844.2,122.5z"/>
</g>
</svg>
